<?xml version="1.0" encoding="UTF-8" standalone="no"?>
<!-- Created with Inkscape (http://www.inkscape.org/) -->

<svg
   xmlns:dc="http://purl.org/dc/elements/1.1/"
   xmlns:cc="http://creativecommons.org/ns#"
   xmlns:rdf="http://www.w3.org/1999/02/22-rdf-syntax-ns#"
   xmlns:svg="http://www.w3.org/2000/svg"
   xmlns="http://www.w3.org/2000/svg"
   xmlns:xlink="http://www.w3.org/1999/xlink"
   xmlns:sodipodi="http://sodipodi.sourceforge.net/DTD/sodipodi-0.dtd"
   xmlns:inkscape="http://www.inkscape.org/namespaces/inkscape"
   version="1.1"
   width="400"
   height="400"
   id="svg3035"
   inkscape:version="0.48.4 r9939"
   sodipodi:docname="cloud_10.svg">
  <sodipodi:namedview
     pagecolor="#000000"
     bordercolor="#666666"
     borderopacity="1"
     objecttolerance="10"
     gridtolerance="10"
     guidetolerance="10"
     inkscape:pageopacity="1"
     inkscape:pageshadow="2"
     inkscape:window-width="1366"
     inkscape:window-height="714"
     id="namedview51"
     showgrid="false"
     inkscape:zoom="1.1232119"
     inkscape:cx="123.14005"
     inkscape:cy="176.28018"
     inkscape:window-x="-4"
     inkscape:window-y="27"
     inkscape:window-maximized="1"
     inkscape:current-layer="svg3035" />
  <defs
     id="defs3037">
    <clipPath
       id="clipPath5036">
      <path
         d="m 384.86812,225.04724 a 105.05587,105.05587 0 1 1 -210.11173,0 105.05587,105.05587 0 1 1 210.11173,0 z"
         transform="translate(-44.097972,55.88637)"
         id="path5038"
         style="opacity:0.7;fill:url(#radialGradient5040);fill-opacity:1;fill-rule:evenodd;stroke:none"
         inkscape:connector-curvature="0" />
    </clipPath>
    <filter
       x="-0.25"
       y="-0.5"
       width="1.5"
       height="2"
       color-interpolation-filters="sRGB"
       id="filter4273-2">
      <feGaussianBlur
         result="fbSourceGraphic"
         id="feGaussianBlur4275-6"
         stdDeviation="23.68129" />
      <feColorMatrix
         id="feColorMatrix5148"
         values="0 0 0 -1 0 0 0 0 -1 0 0 0 0 -1 0 0 0 0 1 0"
         in="fbSourceGraphic"
         result="fbSourceGraphicAlpha" />
      <feGaussianBlur
         in="fbSourceGraphic"
         stdDeviation="4"
         result="result8"
         id="feGaussianBlur5150" />
      <feTurbulence
         seed="0"
         result="result7"
         type="fractalNoise"
         numOctaves="2"
         baseFrequency="0.05"
         id="feTurbulence5152" />
      <feColorMatrix
         result="result5"
         values="1 0 0 0 0 0 1 0 0 0 0 0 1 0 0 0 0 0 2 -0.75 "
         id="feColorMatrix5154" />
      <feComposite
         in2="result7"
         operator="out"
         in="result8"
         result="result6"
         id="feComposite5156" />
      <feDisplacementMap
         in2="result6"
         scale="120"
         xChannelSelector="A"
         yChannelSelector="A"
         in="result5"
         result="result4"
         id="feDisplacementMap5158" />
      <feComposite
         in2="result4"
         operator="arithmetic"
         k1="1"
         k2="0"
         k3="0.5"
         k4="0"
         in="result8"
         result="result2"
         id="feComposite5160" />
      <feComposite
         in2="result2"
         operator="in"
         in="fbSourceGraphic"
         result="fbSourceGraphic"
         id="feComposite5162" />
    </filter>
    <radialGradient
       cx="265.84985"
       cy="306.01523"
       r="105.05586"
       fx="265.84985"
       fy="306.01523"
       id="radialGradient5249"
       xlink:href="#linearGradient4285"
       gradientUnits="userSpaceOnUse"
       gradientTransform="matrix(-0.929045,-0.45632385,0.64316538,-1.309442,377.12319,707.07004)" />
    <linearGradient
       id="linearGradient4285">
      <stop
         id="stop4287"
         style="stop-color:#ffffff;stop-opacity:0"
         offset="0" />
      <stop
         id="stop4289"
         style="stop-color:#000000;stop-opacity:1"
         offset="1" />
    </linearGradient>
    <radialGradient
       cx="265.84985"
       cy="306.01523"
       r="105.05586"
       fx="265.84985"
       fy="306.01523"
       id="radialGradient5249-1"
       xlink:href="#linearGradient4285-7"
       gradientUnits="userSpaceOnUse"
       gradientTransform="matrix(-0.929045,-0.45632385,0.64316538,-1.309442,377.12319,707.07004)" />
    <linearGradient
       id="linearGradient4285-7">
      <stop
         id="stop4287-0"
         style="stop-color:#ffffff;stop-opacity:0"
         offset="0" />
      <stop
         id="stop4289-8"
         style="stop-color:#000000;stop-opacity:1"
         offset="1" />
    </linearGradient>
    <clipPath
       id="clipPath5036-0">
      <path
         d="m 384.86812,225.04724 a 105.05587,105.05587 0 1 1 -210.11173,0 105.05587,105.05587 0 1 1 210.11173,0 z"
         transform="translate(-44.097972,55.88637)"
         id="path5038-9"
         style="opacity:0.7;fill:url(#radialGradient5040);fill-opacity:1;fill-rule:evenodd;stroke:none"
         inkscape:connector-curvature="0" />
    </clipPath>
    <filter
       x="-0.25"
       y="-0.5"
       width="1.5"
       height="2"
       color-interpolation-filters="sRGB"
       id="filter4273-2-4">
      <feGaussianBlur
         result="fbSourceGraphic"
         id="feGaussianBlur4275-6-9"
         stdDeviation="23.68129" />
      <feColorMatrix
         id="feColorMatrix5148-2"
         values="0 0 0 -1 0 0 0 0 -1 0 0 0 0 -1 0 0 0 0 1 0"
         in="fbSourceGraphic"
         result="fbSourceGraphicAlpha" />
      <feGaussianBlur
         in="fbSourceGraphic"
         stdDeviation="4"
         result="result8"
         id="feGaussianBlur5150-5" />
      <feTurbulence
         seed="0"
         result="result7"
         type="fractalNoise"
         numOctaves="2"
         baseFrequency="0.05"
         id="feTurbulence5152-9" />
      <feColorMatrix
         result="result5"
         values="1 0 0 0 0 0 1 0 0 0 0 0 1 0 0 0 0 0 2 -0.75 "
         id="feColorMatrix5154-9" />
      <feComposite
         in2="result7"
         operator="out"
         in="result8"
         result="result6"
         id="feComposite5156-3" />
      <feDisplacementMap
         in2="result6"
         scale="120"
         xChannelSelector="A"
         yChannelSelector="A"
         in="result5"
         result="result4"
         id="feDisplacementMap5158-9" />
      <feComposite
         in2="result4"
         operator="arithmetic"
         k1="1"
         k2="0"
         k3="0.5"
         k4="0"
         in="result8"
         result="result2"
         id="feComposite5160-7" />
      <feComposite
         in2="result2"
         operator="in"
         in="fbSourceGraphic"
         result="fbSourceGraphic"
         id="feComposite5162-5" />
    </filter>
    <clipPath
       id="clipPath4277">
      <path
         d="m 384.86812,225.04724 a 105.05587,105.05587 0 1 1 -210.11173,0 105.05587,105.05587 0 1 1 210.11173,0 z"
         transform="translate(63.044882,353.02922)"
         id="path4279"
         style="fill:#800000;fill-rule:evenodd;stroke:none;filter:url(#filter3848)"
         inkscape:connector-curvature="0" />
    </clipPath>
    <filter
       x="-0.30000001"
       y="-0.5"
       width="1.6"
       height="2"
       color-interpolation-filters="sRGB"
       id="filter4228">
      <feGaussianBlur
         result="result8"
         stdDeviation="15"
         id="feGaussianBlur4230" />
      <feTurbulence
         baseFrequency="0.025"
         numOctaves="5"
         type="fractalNoise"
         result="result7"
         seed="27"
         id="feTurbulence4232" />
      <feComposite
         in2="result8"
         operator="over"
         in="result7"
         result="result6"
         id="feComposite4234" />
      <feColorMatrix
         values="1 0 0 0 0 0 1 0 0 0 0 0 1 0 0 0 0 0 6 -4 "
         result="result9"
         id="feColorMatrix4236" />
      <feDisplacementMap
         in2="result9"
         scale="50"
         xChannelSelector="A"
         yChannelSelector="A"
         in="result7"
         result="result4"
         id="feDisplacementMap4238" />
      <feComposite
         in2="result4"
         operator="in"
         in="result8"
         result="result2"
         id="feComposite4240" />
      <feComposite
         in2="result9"
         operator="in"
         in="result2"
         result="fbSourceGraphic"
         id="feComposite4242" />
      <feComposite
         in2="fbSourceGraphic"
         operator="arithmetic"
         k1="0.5"
         k2="1"
         k3="0"
         k4="0"
         in="fbSourceGraphic"
         result="result91"
         id="feComposite4244" />
      <feBlend
         in2="result91"
         mode="multiply"
         in="fbSourceGraphic"
         id="feBlend4246" />
    </filter>
    <filter
       id="filter4047"
       inkscape:label="Specular light"
       inkscape:menu="ABCs"
       inkscape:menu-tooltip="Basic specular bevel to use for building textures"
       color-interpolation-filters="sRGB">
      <feGaussianBlur
         id="feGaussianBlur4049"
         stdDeviation="5"
         result="result1" />
      <feComposite
         id="feComposite4051"
         in2="result1"
         operator="arithmetic"
         k2="2"
         in="result1"
         result="fbSourceGraphic" />
      <feColorMatrix
         result="fbSourceGraphicAlpha"
         in="fbSourceGraphic"
         values="0 0 0 -1 0 0 0 0 -1 0 0 0 0 -1 0 0 0 0 1 0"
         id="feColorMatrix4363" />
      <feGaussianBlur
         id="feGaussianBlur4365"
         result="result0"
         in="fbSourceGraphicAlpha"
         stdDeviation="6" />
      <feSpecularLighting
         id="feSpecularLighting4367"
         specularExponent="25"
         specularConstant="1"
         surfaceScale="10"
         lighting-color="rgb(255,255,255)"
         result="result1"
         in="result0">
        <feDistantLight
           id="feDistantLight4369"
           azimuth="235"
           elevation="45" />
      </feSpecularLighting>
      <feComposite
         id="feComposite4371"
         in2="result1"
         k3="1"
         k2="1"
         operator="arithmetic"
         result="result4"
         in="fbSourceGraphic" />
      <feComposite
         id="feComposite4373"
         in2="fbSourceGraphicAlpha"
         operator="in"
         result="result2"
         in="result4" />
    </filter>
    <clipPath
       clipPathUnits="userSpaceOnUse"
       id="clipPath4375">
      <g
         transform="translate(-770.54668,-647.52977)"
         id="g4377">
        <path
           d="m 384.86812,225.04724 a 105.05587,105.05587 0 1 1 -210.11173,0 105.05587,105.05587 0 1 1 210.11173,0 z"
           transform="translate(690.73443,622.48253)"
           id="path4379"
           style="fill:#003380;fill-rule:evenodd;stroke:none"
           inkscape:connector-curvature="0" />
      </g>
    </clipPath>
    <filter
       inkscape:collect="always"
       id="filter3841"
       inkscape:label="Motion blur, horizontal"
       inkscape:menu="Blurs"
       inkscape:menu-tooltip="Blur as if the object flies horizontally; adjust Standard Deviation to vary force"
       color-interpolation-filters="sRGB">
      <feGaussianBlur
         inkscape:collect="always"
         stdDeviation="7.2492633"
         id="feGaussianBlur3843"
         result="fbSourceGraphic" />
      <feColorMatrix
         result="fbSourceGraphicAlpha"
         in="fbSourceGraphic"
         values="0 0 0 -1 0 0 0 0 -1 0 0 0 0 -1 0 0 0 0 1 0"
         id="feColorMatrix3851" />
      <feGaussianBlur
         id="feGaussianBlur3853"
         in="fbSourceGraphic"
         stdDeviation="5 0.01"
         result="fbSourceGraphic" />
      <feColorMatrix
         result="fbSourceGraphicAlpha"
         in="fbSourceGraphic"
         values="0 0 0 -1 0 0 0 0 -1 0 0 0 0 -1 0 0 0 0 1 0"
         id="feColorMatrix3855" />
      <feGaussianBlur
         id="feGaussianBlur3857"
         in="fbSourceGraphic"
         stdDeviation="5 0.01"
         result="fbSourceGraphic" />
      <feColorMatrix
         result="fbSourceGraphicAlpha"
         in="fbSourceGraphic"
         values="0 0 0 -1 0 0 0 0 -1 0 0 0 0 -1 0 0 0 0 1 0"
         id="feColorMatrix3859" />
      <feGaussianBlur
         id="feGaussianBlur3861"
         in="fbSourceGraphic"
         stdDeviation="5 0.01"
         result="fbSourceGraphic" />
      <feColorMatrix
         result="fbSourceGraphicAlpha"
         in="fbSourceGraphic"
         values="0 0 0 -1 0 0 0 0 -1 0 0 0 0 -1 0 0 0 0 1 0"
         id="feColorMatrix3863" />
      <feGaussianBlur
         id="feGaussianBlur3865"
         in="fbSourceGraphic"
         stdDeviation="5 0.01"
         result="fbSourceGraphic" />
      <feColorMatrix
         result="fbSourceGraphicAlpha"
         in="fbSourceGraphic"
         values="0 0 0 -1 0 0 0 0 -1 0 0 0 0 -1 0 0 0 0 1 0"
         id="feColorMatrix3867" />
      <feGaussianBlur
         id="feGaussianBlur3869"
         in="fbSourceGraphic"
         stdDeviation="5 0.01"
         result="fbSourceGraphic" />
      <feColorMatrix
         result="fbSourceGraphicAlpha"
         in="fbSourceGraphic"
         values="0 0 0 -1 0 0 0 0 -1 0 0 0 0 -1 0 0 0 0 1 0"
         id="feColorMatrix3871" />
      <feGaussianBlur
         id="feGaussianBlur3873"
         in="fbSourceGraphic"
         stdDeviation="5 0.01"
         result="fbSourceGraphic" />
      <feColorMatrix
         result="fbSourceGraphicAlpha"
         in="fbSourceGraphic"
         values="0 0 0 -1 0 0 0 0 -1 0 0 0 0 -1 0 0 0 0 1 0"
         id="feColorMatrix3875" />
      <feGaussianBlur
         id="feGaussianBlur3877"
         in="fbSourceGraphic"
         stdDeviation="5 0.01"
         result="fbSourceGraphic" />
      <feColorMatrix
         result="fbSourceGraphicAlpha"
         in="fbSourceGraphic"
         values="0 0 0 -1 0 0 0 0 -1 0 0 0 0 -1 0 0 0 0 1 0"
         id="feColorMatrix3879" />
      <feGaussianBlur
         id="feGaussianBlur3881"
         in="fbSourceGraphic"
         stdDeviation="5 0.01" />
    </filter>
  </defs>
  <metadata
     id="metadata3040">
    <rdf:RDF>
      <cc:Work
         rdf:about="">
        <dc:format>image/svg+xml</dc:format>
        <dc:type
           rdf:resource="http://purl.org/dc/dcmitype/StillImage" />
        <dc:title />
      </cc:Work>
    </rdf:RDF>
  </metadata>
  <g
     id="g4030"
     style="opacity:0.69999999999999996;fill:#ffffff;filter:url(#filter3841)"
     clip-path="url(#clipPath4375)">
    <path
       inkscape:connector-curvature="0"
       d="m 195.59319,146.9792 c 1.51388,2.54682 3.22289,3.78375 5.93288,4.88766 1.54783,0.48704 3.22516,0.90647 4.86188,0.59156 0.46758,-0.09 0.92979,-0.24403 1.34895,-0.4699 0.40234,-0.21681 1.48744,-1.05382 1.08315,-0.84067 -3.40594,1.79566 -6.73627,3.73121 -10.10441,5.59681 1.59541,-2.06259 2.11862,-4.57425 1.38423,-7.06199 -0.83901,-1.62446 -2.54499,-2.44217 -4.13985,-3.17573 -2.04726,-0.75161 -4.08727,-1.20182 -6.19366,-0.49046 -5.00212,2.87672 6.99134,-4.0247 9.53938,-5.34398 0.35358,-0.18307 -0.57671,0.55472 -0.81268,0.87543 -0.88751,1.2062 -1.21753,2.63136 -1.57063,4.05258 -0.36583,2.25938 -0.24297,1.1208 -0.36707,3.41591 0,0 -11.47817,5.80237 -11.47817,5.80237 l 0,0 c 0.0273,-2.43584 -0.0533,-1.23404 0.23405,-3.60589 1.42748,-7.93862 4.79794,-10.23433 14.8616,-13.09234 2.30642,-0.22521 4.60294,0.23085 6.71496,1.18664 1.89184,0.98925 3.74128,2.07213 4.64609,4.11176 0.90914,2.84745 0.52431,5.65926 -0.84225,8.31909 -3.98554,2.52481 -7.9315,5.11321 -11.95662,7.57443 -2.4094,1.47327 -5.49168,0.5024 -7.92005,-0.31565 -2.89121,-1.33071 -4.85023,-2.89133 -6.71269,-5.47489 0,0 11.49091,-6.54274 11.49091,-6.54274 z"
       id="path4008"
       style="fill:#ffffff" />
    <path
       inkscape:connector-curvature="0"
       d="m 159.11729,197.79235 c -4.23284,2.68551 2.70929,-1.73288 9.78,-5.53557 0.3026,-0.16274 -0.5092,0.46468 -0.72866,0.72905 -0.88256,1.06316 -1.18846,2.26107 -1.53107,3.56886 -0.75895,3.46917 -0.30591,6.91747 1.24464,10.08427 2.23606,3.47692 6.08942,4.61324 9.91275,5.43646 5.00761,1.07513 9.85313,-0.0612 14.5429,-1.82245 0.65648,-0.33257 1.31297,-0.66515 1.96945,-0.99773 -3.09466,1.75141 -6.14122,3.59066 -9.28397,5.25424 -0.49744,0.26332 0.91922,-0.65595 1.32801,-1.04283 1.22418,-1.15854 1.74277,-2.47064 2.27281,-4.02508 0.68496,-4.37399 -1.18428,-7.62576 -3.7383,-10.97621 -2.68324,-3.17393 -6.01254,-5.67569 -9.70197,-7.55471 -1.27258,-0.53854 -2.71284,-1.16198 -4.14207,-0.86563 -0.38047,0.0789 -1.41319,0.6416 -1.0759,0.44867 11.25037,-6.4351 13.07539,-8.00445 9.15333,-4.83406 -2.24198,2.54292 -3.15279,5.74433 -3.74263,9.00373 -0.39591,2.23586 0.22721,3.99736 1.4072,5.84559 0,0 -11.13832,6.49423 -11.13832,6.49423 l 0,0 c -1.32439,-2.09097 -2.20163,-4.14425 -1.82343,-6.68861 0.51261,-3.42184 1.34379,-6.74575 3.31186,-9.65536 3.60101,-4.81427 1.12746,-1.8248 13.18083,-8.06336 0.56623,-0.29306 2.10153,-0.0465 2.6394,0.0846 1.22554,0.2987 1.83235,0.65816 2.98469,1.19839 3.74636,2.11089 7.09427,4.79858 9.89614,8.0772 2.70065,3.54275 4.76195,7.34778 4.42581,11.95538 -0.32901,1.41979 -0.3602,1.99309 -1.04618,3.27845 -0.45007,0.84333 -1.41175,2.1882 -2.24168,2.69875 -10.55939,6.49583 -8.58464,5.54857 -14.66945,8.18167 -4.87971,1.56783 -9.85889,2.43214 -14.94422,1.23405 -4.17696,-1.0106 -8.3048,-2.4581 -10.68447,-6.30081 -1.6283,-3.37348 -2.25842,-7.10087 -1.67891,-10.82779 0.17305,-0.98187 0.31249,-2.02037 0.64248,-2.96948 1.92819,-5.54577 9.08153,-6.88356 13.80485,-9.67364 0,0 -10.32592,8.25976 -10.32592,8.25976 z"
       id="path4010"
       style="fill:#ffffff" />
    <path
       inkscape:connector-curvature="0"
       d="m 260.33361,198.43351 c -1.39503,2.25497 -2.02656,4.82688 -1.95499,7.45887 0.40542,2.80129 1.55948,3.67935 4.32806,3.50925 0.41278,-0.1468 0.84511,-0.24723 1.23833,-0.44041 0.43998,-0.21615 1.67636,-1.01601 1.24651,-0.78035 -3.26455,1.78984 -6.42978,3.76452 -9.75252,5.44388 -0.50989,0.2577 0.86954,-0.74392 1.26641,-1.15488 1.00572,-1.04143 1.13705,-1.37782 1.90365,-2.57987 1.73957,-3.33132 1.29757,-5.45768 -0.50088,-8.613 -2.32357,-3.33449 -5.72753,-5.45581 -9.49979,-6.78052 -1.35783,-0.3555 -2.88936,-0.72922 -4.28807,-0.28494 -0.37656,0.11961 -1.38578,0.75976 -1.04042,0.56785 10.66634,-5.92713 12.98207,-8.55166 9.44555,-4.81698 -2.26373,3.37354 -1.00886,7.13832 0.39071,10.57699 1.13113,2.22949 2.77955,4.05753 4.46375,5.86892 0,0 -10.82203,6.56667 -10.82203,6.56667 l 0,0 c -1.75097,-1.93926 -3.48171,-3.89134 -4.69744,-6.23127 -1.62955,-3.69148 -3.0895,-7.72077 -1.27351,-11.6341 3.04343,-5.11941 0.71145,-1.61791 12.75878,-8.34059 0.56721,-0.31651 2.07932,-0.27283 2.64346,-0.2154 1.30511,0.13285 1.84945,0.37297 3.11307,0.76334 3.89878,1.65923 7.38074,4.07727 9.90273,7.54098 2.04986,3.38581 2.89132,6.00245 1.19124,9.7838 -3.3533,6.40719 -8.02698,7.41103 -15.31071,11.61681 -0.45122,0.26055 -0.95414,0.43264 -1.45938,0.56002 -0.48108,0.12129 -0.98495,0.12027 -1.47743,0.1804 -3.26301,-0.44977 -4.73586,-1.89229 -5.29428,-5.16215 -0.19573,-2.80103 0.33129,-5.47269 1.42687,-8.06155 0,0 12.05233,-5.34177 12.05233,-5.34177 z"
       id="path4012"
       style="fill:#ffffff" />
    <path
       inkscape:connector-curvature="0"
       d="m 189.2866,244.40216 c 0.003,4.28466 2.08942,6.13316 5.38223,8.44717 5.11782,2.77209 10.9902,4.43723 16.8282,4.67331 1.04454,0.0422 2.08989,-0.0609 3.13484,-0.0913 0.85657,-0.22463 1.7536,-0.33016 2.5697,-0.67389 0.70465,-0.29677 2.62376,-1.56565 1.93918,-1.22514 -3.16334,1.57341 -6.08859,3.65365 -9.38378,4.92802 -0.61057,0.23613 0.7511,-1.08394 1.00465,-1.68749 0.62269,-1.48226 0.51551,-2.22343 0.5765,-3.77696 -0.44832,-3.49968 -2.87312,-5.94621 -5.97872,-7.35605 -0.3724,-0.0194 -0.75351,-0.14054 -1.1172,-0.0581 -0.30792,0.0698 -1.08521,0.64537 -0.80795,0.49435 3.54757,-1.93233 7.0083,-4.0288 10.61982,-5.83879 0.24985,-0.12522 -0.35654,0.45388 -0.41879,0.72633 -0.20278,0.88746 0.18269,1.59754 0.45187,2.41528 2.05923,4.17959 5.11441,5.69355 9.51772,6.57072 2.33973,0.13841 4.58239,-0.29652 6.67673,-1.36286 0.65943,-0.33574 2.53808,-1.51991 1.883,-1.17577 -9.41599,4.94665 -11.88598,7.6226 -7.95854,3.75217 0.34689,-0.43006 0.69379,-0.86012 1.04068,-1.29018 0,0 11.83188,-5.08997 11.83188,-5.08997 l 0,0 c -0.34581,0.48153 -0.69161,0.96307 -1.03742,1.4446 -4.52613,5.04071 -1.19428,1.60681 -13.78987,9.18679 -2.7685,1.66608 -5.93007,2.19392 -9.11036,1.78021 -4.8241,-1.26099 -7.88394,-3.05951 -10.34798,-7.5383 -0.22233,-0.53241 -1.58603,-3.82596 -0.82729,-4.36176 5.55121,-3.9201 8.65754,-8.66908 14.2092,-6.74312 3.32542,1.95455 5.99786,4.68576 6.58056,8.64912 0.008,1.35866 0.0186,5.43249 -1.20381,6.3598 -3.89614,2.95553 -8.16449,5.38872 -12.33525,7.9421 -0.64101,0.39243 -1.35032,0.68398 -2.07578,0.88045 -0.84956,0.23007 -1.74113,0.25931 -2.6117,0.38897 -7.09757,-0.20396 -14.20901,-1.72565 -20.48375,-5.14541 -0.78972,-0.53771 -1.62934,-1.00861 -2.36917,-1.61313 -2.33037,-1.90421 -3.67821,-4.69066 -4.15737,-7.61505 0,0 11.76797,-5.99608 11.76797,-5.99608 z"
       id="path4014"
       style="fill:#ffffff" />
    <path
       inkscape:connector-curvature="0"
       d="m 142.14261,142.0344 c 0.44816,3.90532 1.97331,6.62562 4.54245,9.52961 3.80587,3.47196 7.09994,4.91877 12.22631,5.16471 0.64606,-0.11088 1.30936,-0.14754 1.9382,-0.33264 0.58578,-0.17243 1.11947,-0.48813 1.6792,-0.73219 -3.21478,1.78327 -6.36305,3.69209 -9.64433,5.34981 -0.4616,0.2332 0.80407,-0.65933 1.13936,-1.05307 0.89304,-1.04869 0.90199,-1.43469 1.3512,-2.69827 0.64246,-3.698 -1.07559,-6.98523 -3.12553,-9.93131 -0.72635,-1.78653 -4.12333,-3.35617 -4.54252,-5.16177 -0.0656,-0.28272 -0.0152,-0.58028 -0.0229,-0.87042 0.15701,-0.25728 0.26987,-0.54739 0.47104,-0.77184 0.50229,-0.5604 1.18724,-0.92658 1.75194,-1.42404 1.22335,-1.07768 2.14355,-2.30473 3.09304,-3.62111 2.55304,-3.95297 4.0407,-8.42385 5.29745,-12.92236 0.55448,-2.11269 1.32472,-7.76634 3.29843,-9.03687 4.0531,-2.60908 8.29385,-4.91444 12.44078,-7.37166 3.372,-1.25042 7.01055,-1.24877 10.55117,-1.48738 2.4354,-0.16413 4.8692,-0.35135 7.30421,-0.52137 4.68869,-0.43719 8.91644,-0.64344 13.24526,-2.61066 0,0 -10.07801,7.92215 -10.07801,7.92215 l 0,0 c -4.23118,1.44688 -8.66556,1.67538 -13.10016,2.01276 -3.18166,0.22735 -4.16219,0.28446 -7.3474,0.56427 -3.60265,0.31648 -7.3163,0.55961 -10.60065,2.22173 18.97969,-11.41488 9.38432,-7.14049 7.45219,-3.32045 -0.97369,1.92508 -1.18505,4.12056 -1.72156,6.17772 -1.231,4.55595 -2.65639,9.07348 -4.94473,13.22642 -1.28941,1.99457 -2.72368,4.64962 -5.1047,5.43937 -0.13672,0.0141 -0.30593,-0.0474 -0.41015,0.0422 -0.29985,0.25777 0.28311,0.75511 0.53852,1.05697 1.13296,1.33898 2.46798,2.50248 3.44844,3.9715 2.24886,3.2494 4.1204,6.79824 3.76407,10.87588 -0.12589,0.56471 -0.18962,1.14696 -0.37766,1.69412 -0.21896,0.63718 -1.15348,2.51471 -1.77148,2.90744 -6.15496,3.91137 -9.84598,7.61965 -16.34725,7.80755 -5.21449,-0.63989 -8.92363,-2.32893 -12.75557,-5.98332 -2.70896,-3.11543 -4.2991,-5.9137 -5.27792,-9.93884 0,0 11.63921,-6.17468 11.63921,-6.17468 z"
       id="path4016"
       style="fill:#ffffff" />
    <path
       inkscape:connector-curvature="0"
       d="m 71.856214,178.30076 c 1.628543,3.37737 4.327924,5.95877 7.296595,8.15648 4.786861,3.25294 10.290469,4.8233 15.911285,5.86952 4.042732,0.73404 8.203496,0.4381 12.102106,1.83616 2.95632,1.78257 5.52604,4.0916 8.54081,5.79791 2.71784,1.38833 5.50471,2.69448 8.46578,3.46753 1.38352,0.13849 2.69611,-0.0495 3.9579,-0.64227 0.34259,-0.16093 1.32665,-0.72943 0.99778,-0.54206 -3.41698,1.94684 -6.84153,3.88037 -10.2623,5.82055 0,0 12.15668,-4.74625 12.15668,-4.74625 l 0,0 c -4.95828,2.87931 -11.04484,8.9131 -17.6074,7.45952 -2.94635,-0.98479 -5.7397,-2.37499 -8.47939,-3.82905 -2.90451,-1.74267 -5.480855,-3.99361 -8.511641,-5.50473 -3.767947,-1.19085 -7.774883,-1.10362 -11.620962,-1.96006 -5.780944,-1.17593 -11.418871,-2.86735 -16.330818,-6.26258 -3.179816,-2.35563 -6.017455,-5.11464 -8.137885,-8.48678 0,0 11.52146,-6.43389 11.52146,-6.43389 z"
       id="path4018"
       style="fill:#ffffff" />
    <path
       inkscape:connector-curvature="0"
       d="m 251.59477,144.80129 c -0.37427,4.05575 0.1045,6.40243 2.3418,9.84218 0.49193,0.56134 0.91378,1.19284 1.47579,1.684 3.48711,3.04754 8.77378,4.36036 13.24499,4.73352 1.76132,0.14699 3.53436,0.0618 5.30154,0.0927 1.89234,-0.22804 3.80535,-0.32381 5.67702,-0.6841 3.67133,-0.70673 8.14069,-2.1785 11.53555,-3.72139 1.76589,-0.80256 7.04611,-3.06211 5.13316,-2.74099 -2.09313,0.35137 -3.59901,3.13247 -5.70066,2.83626 -1.55099,-0.2186 2.3257,-2.0987 3.48855,-3.14804 2.91733,-3.52699 7.08825,-9.04907 5.41799,-14.03497 -0.20705,-0.61808 -0.62078,-1.14639 -0.93117,-1.71958 -2.01818,-2.20393 -5.05203,-3.79307 -8.1402,-3.30872 -0.48774,0.0765 -0.94,0.30233 -1.41,0.45349 -0.38051,0.23676 -1.53355,0.92747 -1.14155,0.71027 3.4071,-1.88784 6.76272,-3.86856 10.18817,-5.72289 0.57854,-0.31319 -0.98971,0.88212 -1.56245,1.2058 -4.05201,2.29002 -8.08262,4.6228 -12.21275,6.76872 -0.35231,0.18306 -0.78413,0.12526 -1.17619,0.18788 -0.42736,0.0899 -0.86566,0.13818 -1.28207,0.26981 -0.43728,0.13824 -0.85917,0.32651 -1.26711,0.53604 -0.39526,0.20303 -1.52431,0.91353 -1.13565,0.69812 16.0382,-8.88869 11.62001,-7.85068 8.51313,-3.89209 -1.56251,2.33137 -1.07258,3.64991 0.74183,5.59117 2.64528,2.24982 5.95288,3.12317 9.25197,3.87749 0,0 -10.6541,7.35269 -10.6541,7.35269 l 0,0 c -3.46322,-0.92282 -6.89811,-2.1446 -9.66844,-4.50257 -2.0493,-2.22021 -3.1637,-4.22666 -1.61048,-7.1256 3.69354,-5.91587 10.89539,-8.95978 17.47272,-10.70931 4.90488,-1.57776 1.06813,-0.4307 -9.17996,5.6613 -0.27748,0.16495 0.59853,-0.25027 0.8708,-0.42368 0.29156,-0.18569 0.5154,-0.46687 0.8104,-0.64707 11.86924,-7.25 7.6781,-5.72733 13.34856,-7.65074 4.27953,-0.44512 7.557,1.02547 10.31479,4.33083 0.36456,0.69956 0.84604,1.3497 1.09369,2.09868 1.81938,5.50257 -2.35258,11.40307 -5.52063,15.43559 -7.32116,6.91966 -3.43097,3.71055 -18.09151,12.22798 -6.93735,4.03045 -14.80259,6.23241 -22.77957,6.73979 -1.84758,-0.0409 -3.70143,0.0348 -5.54273,-0.12277 -4.85964,-0.4159 -10.49943,-1.76182 -14.27603,-5.08043 -0.60798,-0.53424 -1.07463,-1.21054 -1.61195,-1.81581 -2.35273,-3.57774 -3.05963,-6.04884 -3.06901,-10.30081 0,0 11.74176,-5.98272 11.74176,-5.98272 z"
       id="path4020"
       style="fill:#ffffff" />
    <path
       inkscape:connector-curvature="0"
       d="m 119.9156,242.68865 c 6.90541,-4.14046 13.7753,-8.45065 21.39167,-11.13317 9.41276,-2.87345 19.28628,-3.60011 29.03184,-4.54513 6.63994,-0.34084 13.29766,-1.46224 19.95859,-0.88539 2.77168,0.24004 3.32734,0.4627 5.90199,1.0731 3.31662,1.15692 6.51271,2.5284 9.99517,3.08564 2.81042,0.35168 5.64691,0.33056 8.47366,0.33626 3.35743,7.1e-4 6.71478,0.0238 10.0722,0.0269 4.21383,0.002 8.42768,0.002 12.64151,0.0109 3.46722,-0.14395 6.65112,0.15349 9.8351,1.54502 2.41713,1.56082 4.93636,2.76007 7.69987,3.56583 3.67451,0.88757 7.4072,1.46732 11.13903,2.0518 4.93103,1.28986 9.90464,2.3028 14.96417,2.91424 2.74917,0.41676 5.50486,0.28971 8.26318,0.1206 0,0 -10.15236,7.44842 -10.15236,7.44842 l 0,0 c -2.80132,0.0895 -5.59863,0.12771 -8.38129,-0.30184 -5.11044,-0.66893 -10.13262,-1.73453 -15.16791,-2.8214 -3.7907,-0.61386 -7.59783,-1.15746 -11.31608,-2.14211 -2.78737,-0.87443 -5.31776,-2.15434 -7.83601,-3.61788 -3.00572,-1.12781 -6.1576,-1.36529 -9.35832,-1.27133 -4.23024,0.01 -8.46048,0.0113 -12.6907,0.0275 -3.40791,0.0159 -6.81553,0.0658 -10.22347,0.0714 -2.86372,-0.025 -5.73929,-0.0909 -8.57266,-0.54614 -3.40745,-0.70234 -6.49471,-2.204 -9.77295,-3.32823 -2.44015,-0.60713 -2.87068,-0.80004 -5.515,-1.06114 -6.43771,-0.63567 -12.91204,0.23375 -19.33083,0.65027 -9.97577,1.01046 -20.07679,1.98951 -29.58691,5.37084 -2.22685,0.90433 -4.40603,1.86832 -6.55266,2.9515 -0.53882,0.27188 -2.11862,1.15657 -1.598,0.85127 1.06364,-0.62376 13.99286,-8.08011 8.98665,-5.19289 0,0 -12.29948,4.74509 -12.29948,4.74509 z"
       id="path4022"
       style="fill:#ffffff" />
    <path
       inkscape:connector-curvature="0"
       d="m 186.81921,167.7081 c 4.16759,1.69057 8.6093,2.6181 13.00214,3.52039 5.3303,1.08048 10.74382,1.57186 16.1226,2.30821 4.11838,0.65415 8.27455,0.93503 12.4405,0.87289 8.72752,-0.8394 17.44585,-1.76695 26.16419,-2.69792 6.49237,-0.59626 12.97507,-1.47731 19.50473,-1.28348 1.58269,0.0855 3.07492,0.60373 4.57686,1.05715 0,0 -10.71132,7.31808 -10.71132,7.31808 l 0,0 c -1.39571,-0.40985 -2.7939,-0.81272 -4.25892,-0.88285 -6.26202,-0.28286 -12.51235,0.42361 -18.74564,0.94513 -8.92203,0.91024 -17.81834,2.03365 -26.73533,2.98167 -4.24579,0.0624 -8.47897,-0.17531 -12.66138,-0.95944 -5.32856,-0.79545 -10.67589,-1.47003 -15.96646,-2.51047 -4.57851,-0.93695 -9.1606,-1.89298 -13.62903,-3.27581 0,0 10.89706,-7.39355 10.89706,-7.39355 z"
       id="path4024"
       style="fill:#ffffff" />
    <path
       inkscape:connector-curvature="0"
       d="m 155.44195,266.77293 c -0.18626,2.77802 -0.22782,5.53756 0.58027,8.22036 1.11435,2.37425 2.20715,2.54783 4.38769,1.32519 -20.11879,10.8629 -10.89299,7.43971 -8.29752,3.85564 0.92472,-1.27695 1.32155,-2.68736 1.72234,-4.18496 0.8281,-3.31701 0.234,-6.55137 -1.11267,-9.62798 -0.4026,-0.55663 -0.71589,-1.17539 -1.36291,-1.4954 -0.15047,-0.0744 -0.34819,-0.12178 -0.50091,-0.0521 -0.14524,0.0663 -0.40354,0.47556 -0.26264,0.4005 3.70499,-1.97366 7.33666,-4.08198 11.00498,-6.12297 0,0 -12.13042,5.20022 -12.13042,5.20022 l 0,0 c 7.61356,-4.56506 10.55311,-10.83488 14.50833,-4.25139 1.38918,3.31487 2.2015,6.76286 1.50185,10.36318 -2.04684,9.1692 -5.32209,8.09164 -15.36089,13.9604 -2.81489,0.60072 -4.40111,-0.54366 -5.4732,-3.15359 -0.81521,-2.77436 -0.93169,-5.57689 -0.94607,-8.45437 0,0 11.74177,-5.98273 11.74177,-5.98273 z"
       id="path4026"
       style="fill:#ffffff" />
    <path
       inkscape:connector-curvature="0"
       d="m 190.38636,304.03496 c 3.72565,-2.33198 7.24895,-4.96391 10.87105,-7.4502 9.0188,-5.9437 18.35155,-11.48997 28.26492,-15.79959 5.99858,-2.43235 12.3381,-3.80215 18.51271,-5.68607 3.3238,-1.22377 6.02598,-1.62577 9.51722,-1.12141 3.7903,0.60874 7.52981,1.5115 11.17018,2.7286 5.72662,2.02971 11.47409,3.95911 17.3031,5.6758 5.37717,1.41379 10.78482,2.7682 16.35587,3.0228 3.18861,0.069 6.17025,-0.91853 9.16855,-1.8547 0,0 -10.00083,7.72642 -10.00083,7.72642 l 0,0 c -3.10449,0.91671 -6.21027,1.76448 -9.48917,1.52252 -5.55724,-0.48688 -10.94699,-1.91922 -16.31599,-3.38739 -5.87958,-1.72723 -11.66716,-3.71896 -17.51119,-5.55797 -3.67628,-1.06151 -7.42741,-1.90168 -11.22625,-2.38374 -3.1269,-0.20852 -6.06683,0.38613 -9.03575,1.38317 -6.11686,1.66787 -12.33069,3.08641 -18.16546,5.63141 -3.01115,1.36266 -3.30454,1.44476 -6.23294,2.97207 -1.0294,0.53688 -4.05413,2.26276 -3.06274,1.65856 15.82148,-9.64241 5.83906,-3.28292 2.44228,-1.12444 -3.47021,2.38161 -6.82666,4.92081 -10.32659,7.2554 0,0 -12.23897,4.78876 -12.23897,4.78876 z"
       id="path4028"
       style="fill:#ffffff" />
  </g>
</svg>
