<?xml version="1.0" encoding="UTF-8" standalone="no"?>
<!-- Created with Inkscape (http://www.inkscape.org/) -->

<svg
   xmlns:dc="http://purl.org/dc/elements/1.1/"
   xmlns:cc="http://creativecommons.org/ns#"
   xmlns:rdf="http://www.w3.org/1999/02/22-rdf-syntax-ns#"
   xmlns:svg="http://www.w3.org/2000/svg"
   xmlns="http://www.w3.org/2000/svg"
   xmlns:xlink="http://www.w3.org/1999/xlink"
   xmlns:sodipodi="http://sodipodi.sourceforge.net/DTD/sodipodi-0.dtd"
   xmlns:inkscape="http://www.inkscape.org/namespaces/inkscape"
   version="1.1"
   width="400"
   height="400"
   id="svg3035"
   inkscape:version="0.48.4 r9939"
   sodipodi:docname="cloud_7.svg">
  <sodipodi:namedview
     pagecolor="#000000"
     bordercolor="#666666"
     borderopacity="1"
     objecttolerance="10"
     gridtolerance="10"
     guidetolerance="10"
     inkscape:pageopacity="1"
     inkscape:pageshadow="2"
     inkscape:window-width="1366"
     inkscape:window-height="714"
     id="namedview51"
     showgrid="false"
     inkscape:zoom="1.5884615"
     inkscape:cx="116.93611"
     inkscape:cy="173.65533"
     inkscape:window-x="-4"
     inkscape:window-y="27"
     inkscape:window-maximized="1"
     inkscape:current-layer="svg3035" />
  <defs
     id="defs3037">
    <inkscape:path-effect
       effect="skeletal"
       id="path-effect3115"
       is_visible="true"
       pattern="M 0,5 C 0,2.24 2.24,0 5,0 7.76,0 10,2.24 10,5 10,7.76 7.76,10 5,10 2.24,10 0,7.76 0,5 z"
       copytype="single_stretched"
       prop_scale="1"
       scale_y_rel="false"
       spacing="0"
       normal_offset="0"
       tang_offset="0"
       prop_units="false"
       vertical_pattern="false"
       fuse_tolerance="0" />
    <inkscape:path-effect
       effect="spiro"
       id="path-effect3113"
       is_visible="true" />
    <inkscape:path-effect
       effect="skeletal"
       id="path-effect3091"
       is_visible="true"
       pattern="M 0,5 C 0,2.24 2.24,0 5,0 7.76,0 10,2.24 10,5 10,7.76 7.76,10 5,10 2.24,10 0,7.76 0,5 z"
       copytype="single_stretched"
       prop_scale="1"
       scale_y_rel="false"
       spacing="0"
       normal_offset="0"
       tang_offset="0"
       prop_units="false"
       vertical_pattern="false"
       fuse_tolerance="0" />
    <inkscape:path-effect
       effect="spiro"
       id="path-effect3089"
       is_visible="true" />
    <inkscape:path-effect
       effect="skeletal"
       id="path-effect3085"
       is_visible="true"
       pattern="M 0,5 C 0,2.24 2.24,0 5,0 7.76,0 10,2.24 10,5 10,7.76 7.76,10 5,10 2.24,10 0,7.76 0,5 z"
       copytype="single_stretched"
       prop_scale="1"
       scale_y_rel="false"
       spacing="0"
       normal_offset="0"
       tang_offset="0"
       prop_units="false"
       vertical_pattern="false"
       fuse_tolerance="0" />
    <inkscape:path-effect
       effect="spiro"
       id="path-effect3083"
       is_visible="true" />
    <inkscape:path-effect
       effect="skeletal"
       id="path-effect3079"
       is_visible="true"
       pattern="M 0,5 C 0,2.24 2.24,0 5,0 7.76,0 10,2.24 10,5 10,7.76 7.76,10 5,10 2.24,10 0,7.76 0,5 z"
       copytype="single_stretched"
       prop_scale="1"
       scale_y_rel="false"
       spacing="0"
       normal_offset="0"
       tang_offset="0"
       prop_units="false"
       vertical_pattern="false"
       fuse_tolerance="0" />
    <inkscape:path-effect
       effect="spiro"
       id="path-effect3077"
       is_visible="true" />
    <inkscape:path-effect
       effect="skeletal"
       id="path-effect3067"
       is_visible="true"
       pattern="M 0,5 C 0,2.24 2.24,0 5,0 7.76,0 10,2.24 10,5 10,7.76 7.76,10 5,10 2.24,10 0,7.76 0,5 z"
       copytype="single_stretched"
       prop_scale="1"
       scale_y_rel="false"
       spacing="0"
       normal_offset="0"
       tang_offset="0"
       prop_units="false"
       vertical_pattern="false"
       fuse_tolerance="0" />
    <inkscape:path-effect
       effect="spiro"
       id="path-effect3065"
       is_visible="true" />
    <clipPath
       id="clipPath5036">
      <path
         d="m 384.86812,225.04724 a 105.05587,105.05587 0 1 1 -210.11173,0 105.05587,105.05587 0 1 1 210.11173,0 z"
         transform="translate(-44.097972,55.88637)"
         id="path5038"
         style="opacity:0.7;fill:url(#radialGradient5040);fill-opacity:1;fill-rule:evenodd;stroke:none"
         inkscape:connector-curvature="0" />
    </clipPath>
    <filter
       x="-0.25"
       y="-0.5"
       width="1.5"
       height="2"
       color-interpolation-filters="sRGB"
       id="filter4273-2">
      <feGaussianBlur
         result="fbSourceGraphic"
         id="feGaussianBlur4275-6"
         stdDeviation="23.68129" />
      <feColorMatrix
         id="feColorMatrix5148"
         values="0 0 0 -1 0 0 0 0 -1 0 0 0 0 -1 0 0 0 0 1 0"
         in="fbSourceGraphic"
         result="fbSourceGraphicAlpha" />
      <feGaussianBlur
         in="fbSourceGraphic"
         stdDeviation="4"
         result="result8"
         id="feGaussianBlur5150" />
      <feTurbulence
         seed="0"
         result="result7"
         type="fractalNoise"
         numOctaves="2"
         baseFrequency="0.05"
         id="feTurbulence5152" />
      <feColorMatrix
         result="result5"
         values="1 0 0 0 0 0 1 0 0 0 0 0 1 0 0 0 0 0 2 -0.75 "
         id="feColorMatrix5154" />
      <feComposite
         in2="result7"
         operator="out"
         in="result8"
         result="result6"
         id="feComposite5156" />
      <feDisplacementMap
         in2="result6"
         scale="120"
         xChannelSelector="A"
         yChannelSelector="A"
         in="result5"
         result="result4"
         id="feDisplacementMap5158" />
      <feComposite
         in2="result4"
         operator="arithmetic"
         k1="1"
         k2="0"
         k3="0.5"
         k4="0"
         in="result8"
         result="result2"
         id="feComposite5160" />
      <feComposite
         in2="result2"
         operator="in"
         in="fbSourceGraphic"
         result="fbSourceGraphic"
         id="feComposite5162" />
    </filter>
    <radialGradient
       cx="265.84985"
       cy="306.01523"
       r="105.05586"
       fx="265.84985"
       fy="306.01523"
       id="radialGradient5249"
       xlink:href="#linearGradient4285"
       gradientUnits="userSpaceOnUse"
       gradientTransform="matrix(-0.929045,-0.45632385,0.64316538,-1.309442,377.12319,707.07004)" />
    <linearGradient
       id="linearGradient4285">
      <stop
         id="stop4287"
         style="stop-color:#ffffff;stop-opacity:0"
         offset="0" />
      <stop
         id="stop4289"
         style="stop-color:#000000;stop-opacity:1"
         offset="1" />
    </linearGradient>
    <radialGradient
       cx="265.84985"
       cy="306.01523"
       r="105.05586"
       fx="265.84985"
       fy="306.01523"
       id="radialGradient5249-1"
       xlink:href="#linearGradient4285-7"
       gradientUnits="userSpaceOnUse"
       gradientTransform="matrix(-0.929045,-0.45632385,0.64316538,-1.309442,377.12319,707.07004)" />
    <linearGradient
       id="linearGradient4285-7">
      <stop
         id="stop4287-0"
         style="stop-color:#ffffff;stop-opacity:0"
         offset="0" />
      <stop
         id="stop4289-8"
         style="stop-color:#000000;stop-opacity:1"
         offset="1" />
    </linearGradient>
    <clipPath
       id="clipPath5036-0">
      <path
         d="m 384.86812,225.04724 a 105.05587,105.05587 0 1 1 -210.11173,0 105.05587,105.05587 0 1 1 210.11173,0 z"
         transform="translate(-44.097972,55.88637)"
         id="path5038-9"
         style="opacity:0.7;fill:url(#radialGradient5040);fill-opacity:1;fill-rule:evenodd;stroke:none"
         inkscape:connector-curvature="0" />
    </clipPath>
    <filter
       x="-0.25"
       y="-0.5"
       width="1.5"
       height="2"
       color-interpolation-filters="sRGB"
       id="filter4273-2-4">
      <feGaussianBlur
         result="fbSourceGraphic"
         id="feGaussianBlur4275-6-9"
         stdDeviation="23.68129" />
      <feColorMatrix
         id="feColorMatrix5148-2"
         values="0 0 0 -1 0 0 0 0 -1 0 0 0 0 -1 0 0 0 0 1 0"
         in="fbSourceGraphic"
         result="fbSourceGraphicAlpha" />
      <feGaussianBlur
         in="fbSourceGraphic"
         stdDeviation="4"
         result="result8"
         id="feGaussianBlur5150-5" />
      <feTurbulence
         seed="0"
         result="result7"
         type="fractalNoise"
         numOctaves="2"
         baseFrequency="0.05"
         id="feTurbulence5152-9" />
      <feColorMatrix
         result="result5"
         values="1 0 0 0 0 0 1 0 0 0 0 0 1 0 0 0 0 0 2 -0.75 "
         id="feColorMatrix5154-9" />
      <feComposite
         in2="result7"
         operator="out"
         in="result8"
         result="result6"
         id="feComposite5156-3" />
      <feDisplacementMap
         in2="result6"
         scale="120"
         xChannelSelector="A"
         yChannelSelector="A"
         in="result5"
         result="result4"
         id="feDisplacementMap5158-9" />
      <feComposite
         in2="result4"
         operator="arithmetic"
         k1="1"
         k2="0"
         k3="0.5"
         k4="0"
         in="result8"
         result="result2"
         id="feComposite5160-7" />
      <feComposite
         in2="result2"
         operator="in"
         in="fbSourceGraphic"
         result="fbSourceGraphic"
         id="feComposite5162-5" />
    </filter>
    <clipPath
       id="clipPath4277">
      <path
         d="m 384.86812,225.04724 a 105.05587,105.05587 0 1 1 -210.11173,0 105.05587,105.05587 0 1 1 210.11173,0 z"
         transform="translate(63.044882,353.02922)"
         id="path4279"
         style="fill:#800000;fill-rule:evenodd;stroke:none;filter:url(#filter3848)"
         inkscape:connector-curvature="0" />
    </clipPath>
    <filter
       x="-0.30000001"
       y="-0.5"
       width="1.6"
       height="2"
       color-interpolation-filters="sRGB"
       id="filter4228">
      <feGaussianBlur
         result="result8"
         stdDeviation="15"
         id="feGaussianBlur4230" />
      <feTurbulence
         baseFrequency="0.025"
         numOctaves="5"
         type="fractalNoise"
         result="result7"
         seed="27"
         id="feTurbulence4232" />
      <feComposite
         in2="result8"
         operator="over"
         in="result7"
         result="result6"
         id="feComposite4234" />
      <feColorMatrix
         values="1 0 0 0 0 0 1 0 0 0 0 0 1 0 0 0 0 0 6 -4 "
         result="result9"
         id="feColorMatrix4236" />
      <feDisplacementMap
         in2="result9"
         scale="50"
         xChannelSelector="A"
         yChannelSelector="A"
         in="result7"
         result="result4"
         id="feDisplacementMap4238" />
      <feComposite
         in2="result4"
         operator="in"
         in="result8"
         result="result2"
         id="feComposite4240" />
      <feComposite
         in2="result9"
         operator="in"
         in="result2"
         result="fbSourceGraphic"
         id="feComposite4242" />
      <feComposite
         in2="fbSourceGraphic"
         operator="arithmetic"
         k1="0.5"
         k2="1"
         k3="0"
         k4="0"
         in="fbSourceGraphic"
         result="result91"
         id="feComposite4244" />
      <feBlend
         in2="result91"
         mode="multiply"
         in="fbSourceGraphic"
         id="feBlend4246" />
    </filter>
    <clipPath
       clipPathUnits="userSpaceOnUse"
       id="clipPath3918">
      <g
         transform="translate(-770.54668,-647.52977)"
         id="g3920">
        <path
           d="m 384.86812,225.04724 a 105.05587,105.05587 0 1 1 -210.11173,0 105.05587,105.05587 0 1 1 210.11173,0 z"
           transform="translate(690.73443,622.48253)"
           id="path3922"
           style="fill:#003380;fill-rule:evenodd;stroke:none"
           inkscape:connector-curvature="0" />
      </g>
    </clipPath>
    <filter
       inkscape:collect="always"
       id="filter3959">
      <feGaussianBlur
         inkscape:collect="always"
         stdDeviation="10.200313"
         id="feGaussianBlur3961" />
    </filter>
  </defs>
  <metadata
     id="metadata3040">
    <rdf:RDF>
      <cc:Work
         rdf:about="">
        <dc:format>image/svg+xml</dc:format>
        <dc:type
           rdf:resource="http://purl.org/dc/dcmitype/StillImage" />
        <dc:title />
      </cc:Work>
    </rdf:RDF>
  </metadata>
  <g
     id="g3117"
     style="opacity:0.50000000000000000;fill:#f6ffd5;filter:url(#filter3959)"
     clip-path="url(#clipPath3918)"
     transform="matrix(-0.05501354,0.99848561,-0.99848561,-0.05501354,410.69984,11.305582)">
    <path
       inkscape:connector-curvature="0"
       inkscape:original-d="M 95.262523,99.967566 C 109.748,127.93335 142.05204,283.8639 154.02258,295.83444 c 5.90934,5.90933 0.85802,-16.77046 2.67092,-24.92851 5.11749,-23.0287 4.20389,-47.876 7.12243,-71.22432 3.13829,-25.10633 2.52701,-46.39174 2.67091,-46.29581 4.25705,2.83803 38.5515,114.64917 44.5152,129.98438 20.98832,53.96996 23.6811,-16.59193 32.94124,-48.07641 5.81722,-19.77853 9.96225,-41.49136 17.80608,-60.54067 14.46505,-35.1294 42.20493,-65.19512 48.96672,-102.384956"
       inkscape:path-effect="#path-effect3065;#path-effect3067"
       id="path3063"
       d="m 95.262523,99.967566 c -0.101271,0.08522 -0.85164,-0.611843 -2.250998,-2.035622 C 91.612167,96.508165 89.562932,94.357843 86.817492,91.580841 84.072053,88.803838 80.629228,85.400114 76.411855,81.512961 72.194482,77.625809 67.201189,73.255038 61.343216,68.589162 55.485242,63.923286 48.761115,58.962022 41.091899,53.942668 33.422683,48.923314 24.806885,43.845543 15.197718,39.000031 5.5885512,34.154518 -5.0154287,29.540934 -16.606761,25.508281 c -11.591331,-4.032653 -24.17135,-7.484673 -37.657446,-9.943993 -12.142673,-2.21658 -25.012612,-3.622212 -38.463345,-3.981491 -13.450728,-0.359279 -27.482928,0.32812 -41.868548,2.288205 -14.38561,1.960084 -29.12516,5.193144 -43.89992,9.911181 -14.77476,4.718038 -29.5851,10.921307 -44.01468,18.803748 -23.3462,12.746006 -45.69099,29.919123 -65.25038,51.215742 -19.55939,21.296617 -36.33277,46.718627 -48.06562,75.339007 -10e-6,2e-5 -2e-5,4e-5 -3e-5,6e-5 -10.38865,25.32125 -16.79057,53.12855 -18.41033,81.93341 -1.61975,28.80487 1.54349,58.60508 10.24078,87.41846 8.02558,26.61725 20.78556,52.36391 37.73377,75.66705 16.94821,23.30314 38.08308,44.16001 62.61298,60.77172 28.38864,19.2379 61.32834,32.75393 96.04384,39.20557 22.52767,4.18661 45.41361,5.32685 67.816318,3.36865 29.439263,-2.56389 58.017451,-10.46572 84.1664246,-22.55881 26.1489744,-12.09309 49.8659404,-28.37582 69.8827714,-47.76932 21.536404,-20.85294 38.788466,-45.27089 51.407106,-71.20463 12.61863,-25.93374 20.60326,-53.38071 23.8649,-80.66476 0.98387,-8.21709 1.57886,-16.59509 2.74348,-25.00459 1.72694,-12.38101 4.52154,-24.17254 6.37551,-35.73011 1.84257,-11.70283 2.80743,-23.28408 0.96997,-34.1876 -1.25668,-7.63743 -3.93919,-15.59158 -4.64944,-24.32424 -0.36023,-4.44315 -0.0765,-9.07471 1.22286,-13.5836 1.31323,-4.58403 3.86823,-8.90281 7.61719,-12.18591 3.51031,-2.99371 7.80801,-4.80858 12.24048,-5.3509 4.46871,-0.54161 8.94471,0.13823 12.96751,1.80297 8.1528,3.45318 14.07181,10.37084 17.00847,18.12422 2.98608,7.87671 3.2959,16.2445 2.04525,23.99667 -1.26116,7.93125 -3.89089,15.27113 -6.74122,22.16521 -2.92589,7.13171 -6.03599,13.88671 -8.38672,20.64916 -2.36406,6.86179 -4.02214,13.76159 -3.95253,20.47561 0.0848,6.95401 1.87725,13.82303 5.74715,18.97177 1.96867,2.65438 4.43039,4.90156 7.20421,6.4485 2.81924,1.57398 5.98623,2.48486 9.08866,2.52422 4.52761,0.11631 9.10078,-1.68252 12.82734,-4.42008 3.86184,-2.84035 6.86164,-6.82907 9.12797,-11.13332 2.40723,-4.53401 3.90751,-9.45581 5.08821,-14.50054 1.18071,-5.04472 2.04143,-10.21254 3.06122,-15.28427 2.26351,-11.45664 5.18493,-22.22173 8.36761,-32.34532 3.18268,-10.12359 6.62788,-19.6056 10.06249,-28.48261 6.56476,-16.978 13.13721,-31.82286 19.22137,-44.53554 6.08416,-12.71267 11.67922,-23.29597 16.39044,-31.763428 4.71122,-8.467454 8.53758,-14.821718 11.19901,-19.04759 2.66143,-4.225873 4.15654,-6.325483 4.33776,-6.218618 0.18122,0.106865 -0.95653,2.417006 -3.26017,6.837418 -2.30364,4.420413 -5.7717,10.953248 -10.12107,19.57185 -4.34936,8.618598 -9.57897,19.325628 -15.29437,32.124308 -5.7154,12.79867 -11.91579,27.69179 -18.10923,44.67111 -3.2365,8.87884 -6.47978,18.32693 -9.45505,28.36169 -2.97527,10.03477 -5.6838,20.65612 -7.72703,31.89177 -0.88884,4.98486 -1.68465,10.22732 -2.88287,15.54808 -1.19821,5.32077 -2.79841,10.72003 -5.40528,15.97506 -2.49847,4.99811 -6.02822,9.73999 -10.77469,13.39836 -4.62357,3.56626 -10.47197,5.87765 -16.7149,5.89311 -4.26984,-0.0297 -8.49792,-1.16599 -12.25511,-3.22841 -3.68144,-2.02247 -6.88811,-4.85552 -9.41785,-8.21688 -4.89312,-6.57011 -7.25164,-14.78067 -7.33618,-22.96199 -0.0932,-7.84016 1.61746,-15.57307 4.1243,-22.90752 2.44526,-7.21549 5.54359,-14.1386 8.33091,-21.09911 2.6701,-6.72261 5.08288,-13.53013 6.08514,-20.51106 0.9562,-6.78737 0.71649,-13.83662 -1.77929,-19.99448 -2.41587,-5.95005 -6.94696,-11.32894 -12.72887,-13.55393 -2.83368,-1.12916 -5.96236,-1.59828 -8.91691,-1.1922 -2.91264,0.39538 -5.76648,1.60406 -7.91528,3.50425 -2.3737,2.01167 -4.05557,5.0388 -5.03213,8.31131 -0.96629,3.2648 -1.11656,6.9015 -0.83525,10.61607 0.55334,7.33481 3.25092,14.99198 4.71617,23.57048 2.05324,12.27545 1.17079,24.80515 -0.7449,36.95349 -1.85579,11.98581 -4.58042,23.74941 -6.15448,35.57745 -1.07559,8.0199 -1.62101,16.33687 -2.59836,24.85243 -3.25473,28.31193 -11.3979,56.78588 -24.37765,83.71311 -12.97974,26.92722 -30.79572,52.30505 -53.126757,74.05327 -20.767532,20.21359 -45.350012,37.17734 -72.4796117,49.7783 -27.1295993,12.60097 -56.8035853,20.83737 -87.4480303,23.5376 -23.321101,2.0478 -47.109421,0.87539 -70.514101,-3.47205 -36.067,-6.69948 -70.26365,-20.76375 -99.79747,-40.8114 -25.50874,-17.32669 -47.42541,-39.01546 -64.96836,-63.24075 -17.54294,-24.22529 -30.71074,-50.98425 -38.97681,-78.67252 -8.94015,-29.97811 -12.11178,-60.88051 -10.30997,-90.71187 1.80181,-29.83137 8.57595,-58.58949 19.4748,-84.77605 10e-6,-2e-5 2e-5,-4e-5 3e-5,-6e-5 6.16273,-14.79586 13.62374,-28.74429 22.07904,-41.71395 8.4553,-12.96966 17.90482,-24.960582 28.07349,-35.881559 20.33734,-21.841953 43.5213,-39.366223 67.70728,-52.311561 14.95246,-7.998677 30.25734,-14.245537 45.49454,-18.949861 15.23719,-4.704325 30.40707,-7.8664019 45.18798,-9.7129877 14.78091,-1.8465859 29.17339,-2.3780011 42.947381,-1.8339208 13.773993,0.5440802 26.930174,2.163305 39.321072,4.6101166 13.760856,2.7198369 26.552765,6.4489969 38.302538,10.7632899 11.749773,4.314292 22.4587592,9.213993 32.12849,14.340884 9.669731,5.126891 18.30166,10.481292 25.950973,15.766452 7.649313,5.285159 14.317507,10.501405 20.091256,15.408558 5.773748,4.907153 10.65452,9.505509 14.738182,13.606743 4.083661,4.101234 7.371574,7.705563 9.947506,10.672633 2.575932,2.967071 4.441045,5.296967 5.648014,6.895006 1.206969,1.59804 1.756652,2.464114 1.655381,2.549343 z"
       style="fill:#f6ffd5;fill-rule:evenodd;stroke:none" />
    <path
       inkscape:connector-curvature="0"
       inkscape:original-d="m 50.747326,103.52878 c 11.984562,16.3426 20.114178,35.69621 28.489726,54.30854 10.14497,22.54438 30.013558,103.36072 43.624898,51.63763 2.93811,-11.16481 46.9373,-140.881856 54.30854,-143.338934 39.25806,-13.08602 10.2774,150.606974 79.23705,44.515194 7.96598,-12.255356 16.32947,-23.451899 26.70912,-33.831547 13.89449,-13.894494 28.33949,-34.569399 36.50246,-52.527933"
       inkscape:path-effect="#path-effect3077;#path-effect3079"
       id="path3075"
       d="m 50.747326,103.52878 c 0.251108,-0.18093 1.354359,0.80983 3.178901,2.93201 1.824542,2.12219 4.368784,5.37898 7.386997,9.78856 3.018213,4.40957 6.509208,9.97551 10.132838,16.72297 3.62363,6.74747 7.378741,14.6797 10.848077,23.77709 1.996435,5.19318 3.855495,10.73149 6.012847,16.28828 2.157352,5.55679 4.61093,11.13276 8.096993,16.23676 3.06606,4.51622 6.861491,8.72649 11.544331,11.6459 4.39066,2.73147 9.61617,4.48743 14.73768,4.16384 5.84084,-0.24 11.8281,-3.29055 16.29794,-7.88749 4.3023,-4.42063 7.21986,-10.50106 8.77098,-17.06028 1.52075,-6.22961 1.62653,-12.87122 0.94935,-19.81209 -0.67717,-6.94087 -2.13604,-14.1809 -3.58364,-21.56988 -1.19249,-5.59427 -2.37558,-11.44024 -3.15069,-17.46811 -0.77512,-6.02786 -1.14178,-12.23757 -0.6621,-18.54691 0.24324,-3.199414 0.70319,-6.398661 1.4272,-9.585794 1.85702,-7.942489 5.67101,-15.522555 11.45833,-21.474538 5.98117,-6.146606 14.16236,-10.061071 22.79382,-10.433725 9.65566,-0.171193 18.32766,3.780113 25.01488,9.088385 6.95987,5.438582 12.2563,11.820792 17.29407,17.596217 5.35683,6.022385 10.53439,11.557942 16.48696,15.076905 3.10222,1.85562 6.355,3.23987 9.62474,3.89498 3.38052,0.67524 6.81167,0.66732 9.8716,-0.17817 3.08452,-0.74884 5.88173,-2.4131 8.37371,-4.53573 2.49199,-2.12263 4.67874,-4.703785 6.55181,-7.376926 2.06952,-3.01737 3.75378,-6.265475 5.32613,-9.548129 1.57234,-3.282654 3.03238,-6.600014 4.57119,-9.804303 4.39734,-9.202765 9.1737,-17.074957 13.76649,-23.658208 4.59279,-6.583251 9.00138,-11.882866 12.78836,-16.011483 3.78698,-4.128618 6.95185,-7.092126 9.19016,-8.989261 2.23831,-1.897136 3.54888,-2.733166 3.77184,-2.50792 0.22296,0.225246 -0.65037,1.501593 -2.43361,3.792842 -1.78324,2.29125 -4.47479,5.602845 -7.75978,10.00067 -3.285,4.397825 -7.16286,9.887738 -11.20581,16.551644 -4.04295,6.663906 -8.25059,14.506901 -12.08887,23.543838 -1.33224,3.154317 -2.64922,6.526062 -4.1711,10.018349 -1.52187,3.492287 -3.24829,7.105381 -5.48326,10.696879 -2.00049,3.274088 -4.54415,6.474668 -7.68463,9.228108 -3.14047,2.75343 -6.87787,5.05987 -11.25641,6.45467 -4.41991,1.30297 -9.14563,1.49333 -13.71471,0.65438 -4.39384,-0.8046 -8.61167,-2.444 -12.47168,-4.67797 -7.33619,-4.28681 -13.39914,-10.3373 -18.91927,-16.492212 -5.29033,-5.787393 -10.27707,-11.724181 -16.22263,-16.141629 -5.6862,-4.141471 -12.3559,-7.328919 -18.85355,-6.89464 -5.77036,0.167167 -11.67201,3.164859 -16.07188,7.603963 -4.33255,4.3674 -7.24764,10.395145 -8.82603,16.843581 -0.65885,2.605716 -1.06666,5.279117 -1.27122,8.010927 -0.40341,5.38721 -0.0141,10.91632 0.7325,16.49727 0.74664,5.58094 1.85019,11.2136 2.9161,16.81234 1.53567,7.39658 2.99457,15.02481 3.59314,22.67983 0.59857,7.65503 0.33562,15.33645 -1.40812,22.86054 -1.89861,7.97494 -5.75629,15.47758 -11.45197,21.29171 -6.01401,6.13518 -14.14944,9.90904 -22.52842,10.23889 -7.32847,0.17534 -14.15565,-2.2198 -19.65804,-5.93921 -5.815803,-3.92635 -10.240721,-9.04599 -13.563933,-14.37782 -3.730242,-6.01878 -6.222899,-12.14615 -8.279947,-18.01306 -2.057048,-5.8669 -3.67675,-11.47466 -5.356025,-16.61039 -2.961273,-8.97291 -6.190945,-16.88237 -9.291186,-23.69277 -3.100242,-6.8104 -6.070026,-12.52488 -8.576795,-17.1472 -2.506768,-4.62232 -4.549269,-8.15603 -5.876985,-10.59353 -1.327716,-2.4375 -1.938781,-3.78202 -1.687673,-3.96295 z"
       style="fill:#f6ffd5;fill-rule:evenodd;stroke:none" />
    <path
       inkscape:connector-curvature="0"
       inkscape:original-d="m 77.456444,245.08711 c 37.271186,16.66181 67.522996,90.74095 97.933436,105.94617 2.92483,1.46242 14.58326,-23.4863 17.80608,-26.70912 3.02888,-3.02887 19.75519,26.70912 24.92851,26.70912 8.95143,0 27.90381,-59.76325 30.27033,-64.10188 18.46895,-33.85974 30.79625,-70.4204 48.96672,-104.16557 20.17837,-37.47412 56.74335,-74.45268 71.22432,-113.068598"
       inkscape:path-effect="#path-effect3083;#path-effect3085"
       id="path3081"
       d="m 77.456444,245.08711 c 0.02378,0.21551 -1.069511,0.53155 -3.173663,1.05575 -2.104153,0.52419 -5.223181,1.262 -9.192522,2.50482 -3.969341,1.24282 -8.795713,2.99676 -14.17389,5.64936 -5.378177,2.65259 -11.315858,6.20994 -17.257546,11.06346 -5.258096,4.2931 -10.516042,9.61471 -15.26708,16.05751 -4.751037,6.4428 -8.9970415,14.01122 -12.0530246,22.58336 -2.4424536,6.84426 -4.1207202,14.33723 -4.7566137,22.24223 -0.63589355,7.905 -0.2292196,16.22299 1.5061636,24.56345 1.512851,7.28481 4.0465135,14.5987 7.6290097,21.61881 3.582495,7.02012 8.21398,13.74653 13.869959,19.7684 5.149683,5.48748 11.163656,10.40073 17.862966,14.48572 6.699311,4.08498 14.083881,7.34161 21.908511,9.48335 7.306639,2.00354 15.017121,3.03763 22.839104,3.01026 7.821983,-0.0274 15.755242,-1.11624 23.452532,-3.35211 14.62303,-4.24005 28.50981,-12.67749 39.20659,-24.43844 10.29091,-11.30353 17.67049,-25.75886 20.62282,-41.28618 0.53178,-2.97688 0.98175,-6.2368 1.75922,-9.63602 0.64871,-2.83628 1.52382,-5.75623 2.85731,-8.67324 1.50735,-3.23325 3.78117,-6.2836 6.8629,-8.69641 3.1366,-2.4602 7.15739,-3.87938 11.46947,-3.75172 4.6352,0.33558 8.64657,2.31435 11.58688,5.10148 2.93388,2.73839 5.0242,5.83873 6.63975,8.81865 1.66075,2.97158 2.97069,5.77642 4.43501,8.13635 1.50286,2.34088 3.04184,4.39177 4.86147,5.58791 2.09552,1.51579 4.92203,2.23728 7.65121,2.14998 2.78118,-0.0816 5.63007,-1.11194 8.08074,-2.70953 5.05931,-3.16403 8.25247,-9.30192 9.74524,-15.60499 1.5083,-6.55201 0.99405,-13.67825 0.12373,-20.85129 -0.95194,-7.36929 -2.40398,-14.94027 -2.77849,-22.80637 -0.4377,-10.86766 1.24444,-21.31626 4.18758,-31.1085 2.94315,-9.79224 7.14678,-18.92813 11.90288,-27.24532 5.3113,-9.33672 11.22357,-17.79295 17.14543,-25.73535 5.92186,-7.9424 11.85377,-15.37085 17.38749,-22.53927 10e-6,0 10e-6,-1e-5 2e-5,-1e-5 12.48103,-16.18913 23.22015,-31.3314 32.35089,-44.8762 9.13074,-13.54481 16.6569,-25.49139 22.71055,-35.3441 6.05366,-9.85272 10.63935,-17.610875 13.82476,-22.844288 3.18542,-5.233414 4.97547,-7.940855 5.30204,-7.77139 0.32657,0.169465 -0.82695,3.207885 -3.41076,8.781067 -2.58382,5.573183 -6.6028,13.680014 -12.14132,23.899131 -5.53853,10.21911 -12.60118,22.54984 -21.3351,36.49634 -8.73393,13.9465 -19.14303,29.50796 -31.37319,46.12465 0,0 -10e-6,1e-5 -10e-6,2e-5 -5.41293,7.36402 -11.17834,14.89597 -16.85877,22.80106 -5.68042,7.90509 -11.27618,16.18296 -16.16695,25.15202 -4.32827,7.98305 -8.15265,16.59624 -10.78752,25.63447 -2.63486,9.03824 -4.07977,18.50132 -3.49682,28.11515 0.36476,6.96896 1.85999,14.24458 2.9177,22.02233 1.08658,7.57648 1.62231,15.76781 -0.0852,24.12715 -1.64709,8.25619 -6.13415,16.43061 -13.74583,21.70746 -3.78758,2.55807 -8.29958,4.15736 -13.08275,4.39646 -4.76112,0.23025 -9.61256,-1.05522 -13.72217,-3.87184 -3.34131,-2.40721 -5.81381,-5.42564 -7.64146,-8.48126 -1.84222,-2.99776 -3.2343,-5.92368 -4.6724,-8.48381 -1.46198,-2.51372 -2.89648,-4.77608 -4.65924,-6.29542 -1.72435,-1.44162 -3.66662,-2.55347 -5.36081,-2.51336 -1.54795,-0.1459 -3.38718,0.60101 -4.93862,1.72214 -1.58189,1.14988 -2.86928,2.99434 -3.91379,5.08085 -0.97719,1.89997 -1.60144,4.09344 -2.10644,6.49852 -0.60523,2.88245 -1.03782,6.05257 -1.70441,9.35934 -3.32836,17.40563 -11.57341,33.46441 -23.13775,46.08649 -12.03269,13.12171 -27.50184,22.4005 -43.85949,27.02998 -8.61259,2.43352 -17.435219,3.57647 -26.114873,3.53175 -8.679654,-0.0447 -17.216108,-1.27705 -25.311903,-3.58476 -8.66763,-2.47455 -16.787051,-6.16661 -24.121034,-10.76608 -7.333983,-4.59947 -13.882487,-10.10618 -19.47637,-16.24129 -6.138486,-6.7376 -11.0993458,-14.19632 -14.8855363,-21.9458 -3.78619057,-7.74948 -6.3979629,-15.78976 -7.8918268,-23.77946 -1.7073003,-9.14883 -1.9474208,-18.18578 -1.0536284,-26.72077 0.8937924,-8.53499 2.9211308,-16.56899 5.76020445,-23.86788 3.55810935,-9.13945 8.35854185,-17.08506 13.65784105,-23.76127 5.299299,-6.67622 11.099089,-12.08769 16.850859,-16.36843 6.501823,-4.83675 12.913947,-8.23043 18.675429,-10.63988 5.761482,-2.40945 10.880065,-3.84075 15.064477,-4.72473 4.184411,-0.88397 7.441567,-1.22638 9.638438,-1.3407 2.196871,-0.11432 3.33783,-0.005 3.361607,0.21024 z"
       style="fill:#f6ffd5;fill-rule:evenodd;stroke:none" />
    <path
       inkscape:connector-curvature="0"
       inkscape:original-d="m 48.966718,155.16641 c 10.276362,12.87405 39.80495,135.3262 47.186109,135.3262 5.481193,0 35.334083,-69.67395 38.283073,-74.78553 7.87497,-13.64996 16.89154,-23.6129 26.70912,-35.61216 9.46093,-11.56336 39.284,-73.07868 47.18611,-78.34675 7.59313,-5.062088 60.00838,132.29727 65.88249,126.42317 27.92175,-27.92175 36.23244,-76.41287 56.08915,-109.50739 22.14078,-36.901296 54.37757,-70.102149 74.78553,-106.836476"
       inkscape:path-effect="#path-effect3089;#path-effect3091"
       id="path3087"
       d="m 48.966718,155.16641 c -0.04557,0.17871 -1.090554,0.0821 -3.08873,-0.16761 -1.998177,-0.24971 -4.954531,-0.64969 -8.832861,-0.89905 -3.87833,-0.24937 -8.686396,-0.34549 -14.300966,0.14997 -5.614571,0.49547 -12.044744,1.58491 -18.9525665,3.8063 -5.1e-6,0 -1.03e-5,0 -1.55e-5,1e-5 -6.044621,1.94251 -12.4560044,4.76416 -18.840507,8.72905 -6.384503,3.9649 -12.745824,9.0764 -18.458804,15.48581 -4.528607,5.07791 -8.647504,10.97916 -12.035309,17.61429 -3.387806,6.63513 -6.044881,14.00534 -7.582714,21.89369 -1.335476,6.83856 -1.827302,14.07759 -1.325735,21.46504 0.501566,7.38745 1.99664,14.92371 4.626037,22.25941 2.374924,6.6334 5.684814,13.11501 9.887567,19.16891 4.202754,6.0539 9.298469,11.68016 15.201276,16.54544 5.468416,4.51093 11.64437,8.37714 18.333027,11.4061 6.6886566,3.02895 13.890011,5.22063 21.35699,6.36248 7.033425,1.07863 14.3214,1.22669 21.595602,0.39843 7.274202,-0.82825 14.534555,-2.63283 21.468904,-5.45122 13.221064,-5.36667 25.357602,-14.47801 34.318268,-26.34291 7.893949,-10.35406 13.301929,-23.01669 18.787699,-36.12384 5.27343,-12.78282 10.71931,-26.26618 19.24162,-38.59967 4.46425,-6.38831 9.5122,-12.09124 14.23758,-17.76713 4.62103,-5.59832 9.00862,-11.19504 12.09653,-17.28691 2.58789,-4.98208 4.39875,-10.51204 5.94706,-16.30584 0.49143,-1.83893 0.95539,-3.69953 1.40904,-5.57216 1.86795,-7.86999 3.5299,-16.05257 6.27089,-24.14607 10e-6,-1e-5 10e-6,-3e-5 2e-5,-4e-5 2.73958,-8.20088 6.84886,-16.26611 13.03886,-22.89411 6.31468,-6.78873 15.10808,-11.503796 24.72347,-12.082519 7.82457,-0.318767 15.36101,2.194338 21.44238,6.511449 1e-5,10e-6 3e-5,2e-5 4e-5,3e-5 6.13317,4.35512 10.81712,10.21513 14.03877,16.58635 3.24496,6.51322 5.14252,13.31324 6.26539,20.10519 1.12286,6.79194 1.47121,13.57573 1.5717,20.08372 0.18072,6.71947 0.17249,13.29439 0.54291,19.6164 0.37042,6.322 1.11962,12.39108 2.75183,18.11316 1.65953,5.88751 4.13296,11.41827 7.6556,15.95076 3.5907,4.61312 8.22868,8.33846 13.38128,10.20879 4.87708,1.83479 10.3643,2.09242 15.49789,1.0714 5.27802,-1.04705 10.2671,-3.52246 14.52679,-6.81749 4.47149,-3.41519 8.0766,-7.79688 10.93815,-12.64419 2.86154,-4.84731 4.97952,-10.16026 6.46676,-15.51141 1.57585,-5.72596 2.41895,-11.57092 2.87537,-17.41793 0.45642,-5.847 0.52605,-11.69606 0.49418,-17.44921 -0.0529,-6.31913 -0.23901,-12.56977 -0.25957,-18.71795 -0.0205,-6.14818 0.12413,-12.1939 0.65124,-18.10708 1.20546,-13.34296 4.40794,-25.626055 8.71436,-36.481107 4.30641,-10.855052 9.71686,-20.288091 15.4933,-28.258184 6.50888,-8.977996 13.45141,-16.094457 19.94761,-21.692167 6.49621,-5.59771 12.55274,-9.687141 17.62346,-12.683514 5.07073,-2.996373 9.16152,-4.909646 11.96451,-6.072897 2.80299,-1.163251 4.3214,-1.584339 4.4154,-1.378907 0.094,0.205432 -1.23838,1.031192 -3.81753,2.569852 -2.57915,1.53866 -6.40773,3.798645 -11.15474,7.082488 -4.747,3.283842 -10.41803,7.601759 -16.46662,13.324744 -6.0486,5.722986 -12.4814,12.861483 -18.44314,21.698662 -5.29307,7.843497 -10.20398,17.038165 -14.04468,27.517008 -3.84071,10.478843 -6.61163,22.247762 -7.48571,34.913422 -0.39521,5.62236 -0.41348,11.44654 -0.27333,17.47364 0.14016,6.0271 0.43904,12.25715 0.59657,18.68884 0.15979,5.85858 0.18497,11.92416 -0.21776,18.12418 -0.40274,6.20002 -1.2333,12.53454 -2.84585,18.91217 -1.50489,6.00733 -3.81836,12.03229 -7.08585,17.65121 -3.26749,5.61892 -7.48902,10.83184 -12.81942,15.14131 -5.13436,4.10821 -11.27494,7.21188 -18.0165,8.66783 -6.5887,1.42006 -13.68153,1.12754 -20.32535,-1.23826 -6.95919,-2.5457 -12.99422,-7.19087 -17.50544,-12.99554 -4.4007,-5.65569 -7.46413,-12.21459 -9.38647,-19.01676 -1.8446,-6.59546 -2.75563,-13.3089 -3.23132,-20.01749 -0.47568,-6.70858 -0.51617,-13.41227 -0.68352,-19.97618 -0.23575,-6.32451 -0.58716,-12.67957 -1.56964,-18.77786 -0.98247,-6.09829 -2.59617,-11.93972 -5.40386,-17.21221 -2.6966,-5.1528 -6.3799,-9.81287 -11.00783,-12.9919 -1e-5,-1e-5 -2e-5,-2e-5 -3e-5,-2e-5 -4.53515,-3.11581 -10.04059,-5.00706 -15.32697,-4.68253 -6.51425,0.21268 -13.03925,3.92653 -17.982,9.04323 -4.91822,5.11964 -8.27582,11.97265 -10.81404,19.27822 0,1e-5 -10e-6,3e-5 -10e-6,4e-5 -2.48804,7.26967 -4.05565,15.14536 -5.99465,23.24779 -0.45352,1.93354 -0.9336,3.88401 -1.45752,5.84196 -1.65068,6.16881 -3.72571,12.3604 -6.73466,18.28152 -3.72047,7.17152 -8.51477,13.36702 -13.32442,19.10044 -4.86649,5.8495 -9.74993,11.313 -13.75971,17.06984 -7.77446,11.02338 -12.93761,23.89522 -18.34539,36.69301 -5.49008,13.17911 -11.39197,26.5542 -20.191435,38.15453 -10.128232,13.23993 -23.68452,23.2631 -38.49594,29.14814 -7.771127,3.0841 -15.8566,5.02325 -23.939654,5.87026 -8.083053,0.84701 -16.163607,0.60191 -23.968917,-0.67305 -8.285378,-1.35664 -16.2217695,-3.86517 -23.567799,-7.29396 -7.34603,-3.4288 -14.101706,-7.77781 -20.078581,-12.83491 -6.447549,-5.45935 -11.960585,-11.71582 -16.472226,-18.42004 -4.51164,-6.70421 -8.022019,-13.85621 -10.508348,-21.16451 -2.747223,-8.08404 -4.233498,-16.32195 -4.631058,-24.36059 -0.39756,-8.03864 0.293416,-15.87839 1.893179,-23.26434 1.84777,-8.51868 4.890299,-16.39806 8.701397,-23.44047 3.811098,-7.04241 8.391042,-13.24909 13.385832,-18.54901 6.304669,-6.68644 13.232173,-11.90765 20.128437,-15.87294 6.896265,-3.9653 13.7649176,-6.6782 20.195329,-8.449 5.5e-6,0 1.1e-5,0 1.65e-5,0 7.3495322,-2.02245 14.1049125,-2.82544 19.9475525,-3.00209 5.84264,-0.17664 10.781663,0.27081 14.719765,0.87511 3.938103,0.60429 6.883078,1.36321 8.830754,1.96879 1.947675,0.60557 2.903077,1.05565 2.857504,1.23436 z"
       style="fill:#f6ffd5;fill-rule:evenodd;stroke:none" />
    <path
       inkscape:connector-curvature="0"
       inkscape:original-d="m 92.591612,214.81678 c 10.120218,-20.13567 19.481168,-40.642 28.489728,-61.43098 5.75518,-13.28119 13.16205,-25.79874 18.69638,-39.17337 8.33841,-20.151165 11.21511,-66.350353 25.81882,-40.063679 12.299,22.138202 26.25434,46.342719 34.72185,70.334009 1.90793,5.4058 4.90316,26.48979 10.68365,29.38003 11.09237,5.54619 64.01535,-81.668879 75.67583,-73.895224 39.35982,26.239884 29.3711,93.558794 109.50739,129.984374"
       inkscape:path-effect="#path-effect3113;#path-effect3115"
       id="path3111"
       d="m 92.591612,214.81678 c -0.241041,-0.0962 0.09648,-1.64334 1.004428,-4.52864 0.907952,-2.8853 2.387412,-7.10868 4.479477,-12.53404 4.184133,-10.85073 10.804183,-26.53231 20.531373,-45.6836 2.93588,-5.79296 6.16756,-11.87171 9.31415,-18.32231 3.1466,-6.4506 6.2105,-13.27197 8.55788,-20.64309 1.17352,-3.67879 2.19785,-7.6048 3.40355,-11.67169 1.2057,-4.066881 2.59255,-8.274766 4.57757,-12.48391 1.88204,-3.977607 4.38629,-7.895102 7.76392,-11.309622 3.27609,-3.319153 7.46009,-6.016972 12.3384,-7.388356 4.36904,-1.17851 9.01798,-1.171425 13.4265,-0.03178 4.28876,1.110519 8.29457,3.192912 11.72657,6.006953 6.59158,5.47717 11.01633,13.205561 13.21864,21.435749 2.12093,7.83182 2.56143,15.95082 2.42157,23.8758 -0.10322,7.72431 -0.65462,15.34032 -0.37096,22.79767 0.20881,5.05777 0.73525,10.01812 2.23306,14.54632 1.47614,4.41268 3.74871,8.55893 7.01601,11.42417 3.08866,2.81881 7.25463,4.65644 11.59947,5.3184 4.29523,0.65839 8.89292,0.10041 13.20263,-1.39817 8.48663,-2.85971 15.70141,-9.84727 21.0175,-18.08601 5.16979,-8.08869 8.44571,-17.70858 11.55251,-27.72188 1.4014,-4.60044 2.76923,-9.31924 4.29825,-14.07695 1.77857,-5.5342 3.76048,-11.06526 6.2375,-16.466233 7.0661,-15.294942 17.96498,-28.4203 31.0619,-38.060593 13.63362,-10.028694 29.51915,-16.213604 45.5316,-18.316909 8.43562,-1.105408 16.8808,-1.080847 25.06752,-0.04972 8.18672,1.031126 16.11483,3.068733 23.5613,5.987094 7.97723,3.129087 15.37136,7.254952 22.01775,12.109058 6.64639,4.854105 12.54503,10.436319 17.58379,16.506552 5.53293,6.669315 10.00975,13.900139 13.45332,21.343083 3.44356,7.442949 5.85407,15.098049 7.29554,22.687489 1.64923,8.69511 2.02534,17.2708 1.40699,25.40895 -0.61835,8.13815 -2.23082,15.83954 -4.56473,22.91005 -2.9263,8.85882 -6.96436,16.69597 -11.49231,23.42352 -4.52794,6.72755 -9.54671,12.34935 -14.5783,16.95346 -5.69215,5.20691 -11.38006,9.11121 -16.54532,12.05577 -5.16526,2.94457 -9.81327,4.93513 -13.64563,6.31091 -3.83236,1.37579 -6.85382,2.14218 -8.9086,2.55089 -2.05477,0.4087 -3.1457,0.46403 -3.20117,0.25678 -0.0555,-0.20725 0.92539,-0.67128 2.83226,-1.46861 1.90686,-0.79734 4.7422,-1.93286 8.32421,-3.63526 3.582,-1.70239 7.91523,-3.97733 12.6923,-7.12584 4.77706,-3.14851 10.00334,-7.17634 15.17036,-12.3707 4.5688,-4.59147 9.08828,-10.10528 13.11693,-16.59735 4.02865,-6.49208 7.56763,-13.96613 10.04596,-22.2993 1.97941,-6.65005 3.27917,-13.85411 3.66269,-21.41682 0.38353,-7.56271 -0.14938,-15.48485 -1.83831,-23.44907 -1.47235,-6.95223 -3.83107,-13.9462 -7.11627,-20.71901 -3.28519,-6.772811 -7.49701,-13.32453 -12.63514,-19.321671 -4.676,-5.4611 -10.13051,-10.471498 -16.24188,-14.811223 -6.11138,-4.339724 -12.8796,-8.008691 -20.13209,-10.757711 -6.76832,-2.568024 -13.97407,-4.338639 -21.3966,-5.203442 -7.42253,-0.864803 -15.06169,-0.823751 -22.65267,0.23132 -14.41045,1.997881 -28.74509,7.681973 -40.94937,16.744275 -11.72965,8.703446 -21.53512,20.580363 -27.85351,34.308042 -2.25032,4.84968 -4.07936,10.00103 -5.78191,15.33431 -1.46367,4.58498 -2.82348,9.26463 -4.27263,13.95582 -3.10929,10.24856 -6.78544,20.68265 -12.71728,30.10833 -6.08987,9.75573 -15.06874,18.05571 -26.17845,22.02782 -5.69724,1.99012 -11.86351,2.65527 -17.8899,1.74584 -6.13893,-0.9305 -11.97194,-3.61579 -16.60363,-7.81251 -4.73157,-4.40338 -7.8445,-9.95942 -9.58913,-15.65872 -1.7855,-5.78014 -2.40435,-11.58987 -2.5291,-17.13084 -0.20724,-8.14093 0.42535,-15.88394 0.61452,-23.26729 0.15989,-7.56317 -0.0719,-14.82602 -1.83151,-21.412491 -1.85437,-6.842662 -5.18381,-13.148881 -10.11336,-17.204351 -2.52795,-2.117248 -5.4274,-3.715094 -8.44029,-4.528737 -3.07904,-0.833514 -6.32966,-0.926796 -9.25074,-0.170771 -3.29086,0.79642 -6.35848,2.742343 -8.9202,5.16865 -2.65668,2.524333 -4.74502,5.700087 -6.46471,9.063962 -1.82996,3.567034 -3.16842,7.394722 -4.41213,11.292548 -1.24372,3.89784 -2.39245,7.86588 -3.75716,11.74862 -2.73758,7.77723 -6.11436,14.78487 -9.52638,21.28022 -3.41203,6.49535 -6.86178,12.4776 -9.99435,18.10112 -10.34287,18.60618 -17.71796,33.81163 -22.74431,44.23738 -2.513166,5.21288 -4.435529,9.23581 -5.80167,11.92627 -1.36614,2.69046 -2.177157,4.04828 -2.418198,3.95203 z"
       style="fill:#f6ffd5;fill-rule:evenodd;stroke:none" />
  </g>
</svg>
